<?xml version="1.0" encoding="utf-8"?>
<!-- Generator: Adobe Illustrator 27.5.0, SVG Export Plug-In . SVG Version: 6.00 Build 0)  -->
<svg version="1.1" xmlns="http://www.w3.org/2000/svg" xmlns:xlink="http://www.w3.org/1999/xlink" x="0px" y="0px"
	 viewBox="0 0 500 500" style="enable-background:new 0 0 500 500;" xml:space="preserve">
<g id="BACKGROUND">
	<rect style="fill:#19BEED;" width="500" height="500"/>
</g>
<g id="OBJECTS">
	<g>
		<g>
			<g>
				<path style="fill:#233F52;" d="M134.515,216.857c0,0,0.089,34.66-29.126,44.586c-20.127,6.838-31.654-1.944-36.879-8.07
					c-1.781-2.089-0.451-5.327,2.277-5.635l5.008-0.565c0,0-7.988-41.396-0.8-59.65c10.652-27.05,52.083-40.41,78.283-11.148
					l6.191-2.43c2.058-0.808,4.335,0.489,4.677,2.673C165.775,187.031,166.68,213.564,134.515,216.857z"/>
				<path style="fill:#233F52;" d="M162.867,247.738l-5.008-0.565c0,0,7.444-38.579,1.491-57.673c0,0-82.584,25.066-60.211,27.357
					c0,0-0.089,34.66,29.127,44.586c20.127,6.838,31.654-1.944,36.879-8.07C166.925,251.285,165.595,248.046,162.867,247.738z"/>
				<g>
					<g>
						<g>
							<path style="fill:#233F52;" d="M182.606,495.376V311.198c0-6.903-2.798-13.153-7.322-17.677
								c-4.524-4.524-10.774-7.322-17.677-7.322H75.805c-6.903,0-13.153,2.798-17.677,7.322c-4.524,4.524-7.322,10.774-7.322,17.677
								v184.178H182.606z"/>
							<rect x="50.806" y="455.18" style="fill:#042A37;" width="131.8" height="44.82"/>
							<rect x="50.806" y="450.507" style="fill:#375060;" width="131.8" height="4.674"/>
							<g>
								<g>
									<g>
										<path style="fill:#FF917F;" d="M93.034,228.127c0,2.971-1.204,5.66-3.151,7.607c-1.947,1.947-4.636,3.151-7.607,3.151
											s-5.66-1.204-7.607-3.151c-1.947-1.947-3.151-4.636-3.151-7.607c0-2.97,1.204-5.66,3.151-7.607
											c1.947-1.947,4.636-3.151,7.607-3.151s5.66,1.204,7.607,3.151C91.83,222.467,93.034,225.156,93.034,228.127z"/>
										<path style="fill:#FF917F;" d="M161.475,228.127c0,2.971-1.204,5.66-3.151,7.607s-4.636,3.151-7.607,3.151
											c-2.971,0-5.66-1.204-7.607-3.151s-3.151-4.636-3.151-7.607c0-2.97,1.204-5.66,3.151-7.607s4.636-3.151,7.607-3.151
											c2.971,0,5.66,1.204,7.607,3.151S161.475,225.156,161.475,228.127z"/>
									</g>
									<path style="fill:#233F52;" d="M159.125,206.854c0,12.007-4.771,22.877-12.485,30.745
										c-7.714,7.868-18.371,12.735-30.142,12.735c-11.771,0-22.428-4.867-30.142-12.735
										c-7.714-7.868-12.485-18.738-12.485-30.745c0-12.007,4.771-22.876,12.485-30.745c7.714-7.868,18.371-12.735,30.142-12.735
										c11.771,0,22.428,4.867,30.142,12.735S159.125,194.847,159.125,206.854z"/>
									<path style="fill:#FF917F;" d="M81.8,212.357v36.905v36.905c4.982,3.286,10.456,5.888,16.287,7.668
										c5.831,1.78,12.021,2.739,18.436,2.739c6.404,0,12.583-0.956,18.406-2.731c5.823-1.775,11.289-4.368,16.266-7.644v-36.921
										v-36.921h-34.697H81.8z"/>
									<path style="fill:#FFB3A2;" d="M120.524,274.108h-4.026h-4.027c-8.469,0-16.137-3.433-21.687-8.983
										S81.8,251.907,81.8,243.438v-21.5v-21.5c0-8.469,3.433-16.137,8.983-21.688c5.55-5.55,13.218-8.983,21.688-8.983h4.027
										h4.027c8.469,0,16.137,3.433,21.688,8.983c5.55,5.55,8.983,13.218,8.983,21.687v21.5v21.5
										c0,8.47-3.433,16.137-8.983,21.688C136.661,270.675,128.993,274.108,120.524,274.108z"/>
									
										<path style="fill:none;stroke:#A93600;stroke-width:5;stroke-linecap:round;stroke-linejoin:round;stroke-miterlimit:10;" d="
										M90.862,222.798"/>
									<path style="fill:#233F52;" d="M89.803,213.74c-0.45,0-0.9-0.086-1.323-0.257c-0.423-0.172-0.82-0.429-1.163-0.773
										c-0.687-0.687-1.03-1.587-1.03-2.486c0-0.9,0.343-1.8,1.03-2.486c1.588-1.588,3.438-2.819,5.452-3.653
										c2.014-0.834,4.193-1.271,6.438-1.271c2.164,0,4.273,0.41,6.234,1.192c1.961,0.782,3.773,1.937,5.342,3.426
										c0.704,0.669,1.07,1.559,1.094,2.458c0.023,0.9-0.296,1.808-0.965,2.512c-0.67,0.704-1.561,1.071-2.46,1.094
										c-0.899,0.023-1.807-0.296-2.512-0.965c-0.912-0.866-1.966-1.538-3.106-1.992c-1.14-0.455-2.368-0.693-3.627-0.693
										c-1.306,0-2.574,0.254-3.746,0.74c-1.172,0.485-2.249,1.202-3.173,2.126c-0.343,0.343-0.74,0.6-1.163,0.772
										C90.703,213.654,90.253,213.74,89.803,213.74z"/>
									<path style="fill:#233F52;" d="M124.34,213.74c-0.45,0-0.9-0.086-1.323-0.257c-0.423-0.172-0.82-0.429-1.163-0.773
										c-0.686-0.687-1.03-1.587-1.03-2.486c0-0.9,0.343-1.8,1.03-2.486c1.588-1.588,3.438-2.819,5.453-3.653
										c2.014-0.834,4.192-1.271,6.438-1.271c2.164,0,4.273,0.41,6.234,1.192c1.961,0.782,3.773,1.937,5.342,3.426
										c0.704,0.669,1.07,1.559,1.094,2.458c0.023,0.9-0.296,1.808-0.965,2.512c-0.67,0.704-1.561,1.071-2.46,1.094
										c-0.899,0.023-1.807-0.296-2.512-0.965c-0.912-0.866-1.966-1.538-3.106-1.992c-1.14-0.455-2.368-0.693-3.627-0.693
										c-1.307,0-2.574,0.254-3.746,0.74c-1.172,0.485-2.248,1.202-3.173,2.126c-0.343,0.343-0.74,0.6-1.163,0.772
										C125.239,213.654,124.79,213.74,124.34,213.74z"/>
								</g>
								<path style="fill:#FF917F;" d="M119.823,234.668h-3.781h-3.781c-0.799,0-1.472-0.403-1.872-0.991
									c-0.4-0.588-0.527-1.362-0.233-2.105l2.832-7.156l2.832-7.156c0.151-0.382,0.5-0.563,0.842-0.551
									c0.342,0.013,0.677,0.219,0.8,0.611l2.259,7.204l2.26,7.204c0.229,0.729,0.071,1.464-0.335,2.017
									C121.241,234.297,120.587,234.668,119.823,234.668z"/>
							</g>
						</g>
						<g>
							<g>
								<g>
									<g>
										<path style="fill:#375060;" d="M186.073,301.873c-3.957-8.899-14.121-15.052-25.855-15.653h-4.406
											c7.045,0,13.065,3.141,15.417,7.734c3.037,5.931,5.838,24.106,7.901,41.046c5.829-1.781,11.739-3.343,17.692-4.783
											L186.073,301.873z"/>
									</g>
								</g>
								<g>
									<path style="fill:#375060;" d="M47.701,301.873c3.957-8.899,14.121-15.052,25.855-15.653h4.406
										c-7.045,0-13.065,3.141-15.417,7.734c-3.037,5.931-6.246,24.106-8.309,41.046l-14.692-3.783L47.701,301.873z"/>
								</g>
							</g>
						</g>
						<path style="fill:#233F52;" d="M103.671,221.8c0,1.267-0.514,2.414-1.344,3.244c-0.83,0.83-1.977,1.344-3.244,1.344
							c-1.267,0-2.414-0.514-3.245-1.344c-0.83-0.83-1.344-1.977-1.344-3.244c0-1.267,0.513-2.414,1.344-3.245
							c0.83-0.83,1.978-1.344,3.245-1.344c1.267,0,2.414,0.514,3.244,1.344S103.671,220.533,103.671,221.8z"/>
						<path style="fill:#233F52;" d="M138.208,221.8c0,1.267-0.514,2.414-1.344,3.244c-0.83,0.83-1.977,1.344-3.245,1.344
							c-1.267,0-2.414-0.514-3.244-1.344c-0.83-0.83-1.344-1.977-1.344-3.244c0-1.267,0.514-2.414,1.344-3.245
							c0.83-0.83,1.977-1.344,3.244-1.344c1.267,0,2.414,0.514,3.245,1.344C137.694,219.385,138.208,220.533,138.208,221.8z"/>
					</g>
					<path style="fill:#FFB3A2;" d="M182.606,392.586v50.799c0,6.514-5.281,11.795-11.795,11.795l11.775,33.986
						c0,0,20.725-24.022,24.022-92.88c0.079-1.66,0.098-3.413,0.068-5.232c-1.051-0.861-2.168-1.617-3.366-2.215
						C197.486,385.603,188.546,387.26,182.606,392.586z"/>
					<path style="fill:#FF917F;" d="M179.131,335l3.475,49.601v7.986c5.94-5.327,14.88-6.983,20.706-3.747
						c1.197,0.599,2.315,1.354,3.366,2.215c-0.401-24.271-9.854-60.838-9.854-60.838L179.131,335z"/>
					<path style="fill:#FF917F;" d="M50.76,386.154V384.6L54.235,335l-14.692-3.783c0,0-8.186,33.505-12.753,56.594
						C34.177,383.546,42.682,382.241,50.76,386.154z"/>
				</g>
				<g>
					<path style="fill:#2E7EDD;" d="M155.352,437.267l-65.803,12.994c-2.128,0.42-4.193-0.964-4.613-3.092l-19.296-97.719
						c-0.42-2.128,0.964-4.193,3.092-4.613l65.803-12.994c2.128-0.42,4.193,0.964,4.613,3.092l19.296,97.719
						C158.864,434.782,157.48,436.847,155.352,437.267z"/>
					<path style="fill:#1666B9;" d="M155.352,437.267l-65.803,12.994c-2.128,0.42-4.193-0.964-4.613-3.092l0,0
						c-0.42-2.128,0.964-4.193,3.092-4.613l65.803-12.994c2.128-0.42,4.193,0.964,4.613,3.092l0,0
						C158.864,434.782,157.48,436.847,155.352,437.267z"/>
				</g>
				
					<ellipse transform="matrix(0.9247 -0.3806 0.3806 0.9247 -140.4169 72.0854)" style="fill:#FFFFFF;" cx="112.042" cy="391.052" rx="8.782" ry="8.782"/>
				<path style="fill:#FFB3A2;" d="M126.234,362.571l-13.396,2.666l8.984-7.921c0.941-0.905-0.015-2.643-1.236-2.246l-17.893,5.819
					l0.082-7.205c0.011-0.944-1.07-1.465-1.643-0.792l-5.867,6.893c-2.716,3.192-6.18,5.529-10.066,6.793l-6.673,2.392
					l-44.985,13.794c-8.375,2.851-12.6,12.697-9.436,21.992S36.624,419.275,45,416.424l86.463-30.439
					c1.13-0.475,0.837-2.316-0.399-2.506l-11.391-0.823l10.447-7.201c1.037-0.641,0.533-2.417-0.694-2.442l-12.478,0.803
					l10.207-8.88C128.11,364.175,127.444,362.463,126.234,362.571z"/>
				<path style="fill:#233F52;" d="M158.591,199.979c0,0-27.041,19.671-72.304-5.654c0,0,1.612,9.723-8.326,18.032
					c0,0-6.228-42.417,33.918-45.221C152.024,164.333,158.591,199.979,158.591,199.979z"/>
				<path style="fill:none;stroke:#EE826E;stroke-width:3;stroke-linecap:round;stroke-linejoin:round;stroke-miterlimit:10;" d="
					M133.62,238.072c-3.85,5.807-10.445,9.635-17.935,9.635c-6.814,0-12.887-3.169-16.827-8.114"/>
			</g>
			<g>
				<g>
					<g>
						<path style="fill:#233F52;" d="M447.378,495.092v-195.51c0-7.328-2.97-13.962-7.773-18.765
							c-4.802-4.802-11.437-7.773-18.765-7.773h-86.835c-7.328,0-13.962,2.97-18.765,7.773c-4.802,4.802-7.773,11.437-7.773,18.765
							v195.51H447.378z"/>
						<rect x="307.469" y="452.422" style="fill:#042A37;" width="139.909" height="47.578"/>
						<rect x="307.469" y="447.461" style="fill:#2E7EDD;" width="139.909" height="4.961"/>
						<g>
							<rect x="307.469" y="391.052" style="fill:#2E7EDD;" width="139.909" height="4.961"/>
							<rect x="307.469" y="376.414" style="fill:#2E7EDD;" width="139.909" height="4.961"/>
							<rect x="307.469" y="361.776" style="fill:#2E7EDD;" width="139.909" height="4.961"/>
							<rect x="307.469" y="347.138" style="fill:#2E7EDD;" width="139.909" height="4.961"/>
						</g>
						<path style="fill:#2E7EDD;" d="M343.298,288.976c0.073,0.044,0.148,0.086,0.223,0.125c13.697,7.071,29.563,9.775,44.473,7.535
							c13.573-2.039,26.354-8.175,35.983-18.842c1.4-1.551,0.571-4.074-1.495-4.394c-0.015-0.002-0.03-0.005-0.045-0.007
							c-1.497-0.23-3.03-0.349-4.591-0.349h-39.934H337.98c-1.478,0-2.931,0.108-4.351,0.317c-0.133,0.019-0.265,0.04-0.397,0.061
							c-1.89,0.303-2.82,2.497-1.748,4.083c1.191,1.762,2.491,3.433,3.926,4.994C337.669,284.957,340.265,287.141,343.298,288.976z"
							/>
						<g>
							<g>
								<g>
									<path style="fill:#FF917F;" d="M352.295,211.399c0,3.153-1.278,6.008-3.345,8.075c-2.066,2.066-4.921,3.345-8.075,3.345
										c-3.153,0-6.008-1.278-8.075-3.345s-3.345-4.921-3.345-8.075c0-3.153,1.278-6.008,3.345-8.075
										c2.066-2.066,4.921-3.345,8.075-3.345c3.153,0,6.008,1.278,8.075,3.345C351.017,205.391,352.295,208.245,352.295,211.399z"
										/>
									<path style="fill:#FF917F;" d="M424.947,211.399c0,3.153-1.278,6.008-3.345,8.075c-2.067,2.066-4.921,3.345-8.075,3.345
										c-3.153,0-6.008-1.278-8.075-3.345c-2.066-2.066-3.345-4.921-3.345-8.075c0-3.153,1.278-6.008,3.345-8.075
										c2.066-2.066,4.921-3.345,8.075-3.345c3.153,0,6.008,1.278,8.075,3.345C423.669,205.391,424.947,208.245,424.947,211.399z"
										/>
								</g>
								<path style="fill:#233F52;" d="M422.452,188.817c0,12.745-5.065,24.284-13.253,32.637
									c-8.189,8.352-19.501,13.518-31.997,13.518c-12.495,0-23.808-5.166-31.997-13.518c-8.189-8.352-13.254-19.891-13.254-32.637
									c0-12.745,5.065-24.284,13.254-32.637c8.189-8.352,19.501-13.519,31.997-13.519c12.496,0,23.808,5.166,31.997,13.519
									C417.387,164.533,422.452,176.071,422.452,188.817z"/>
								<path style="fill:#233F52;" d="M351.522,157.39c0,0-15.166-1.42-21.764,14.58c-6.599,16,6.452,36.397,6.452,36.397
									L351.522,157.39z"/>
								<path style="fill:#FF917F;" d="M340.369,194.659v39.176v39.175c5.289,3.488,11.099,6.25,17.289,8.14
									c6.19,1.89,12.761,2.908,19.57,2.908c6.798,0,13.358-1.015,19.538-2.899c6.181-1.884,11.983-4.637,17.267-8.115v-39.193
									v-39.193h-36.832H340.369z"/>
								<path style="fill:#FFB3A2;" d="M381.476,260.209h-4.274h-4.274c-8.991,0-17.13-3.644-23.022-9.536
									c-5.892-5.892-9.536-14.031-9.536-23.022v-22.823v-22.823c0-8.991,3.644-17.13,9.536-23.022
									c5.892-5.892,14.031-9.536,23.022-9.536h4.274h4.274c8.991,0,17.13,3.644,23.022,9.536
									c5.892,5.892,9.536,14.031,9.536,23.022v22.823v22.823c0,8.991-3.644,17.13-9.536,23.022
									C398.606,256.565,390.466,260.209,381.476,260.209z"/>
								
									<path style="fill:none;stroke:#A93600;stroke-width:5;stroke-linecap:round;stroke-linejoin:round;stroke-miterlimit:10;" d="
									M349.989,205.742"/>
								<path style="fill:#233F52;" d="M348.865,196.127c-0.478,0-0.956-0.091-1.405-0.273c-0.449-0.182-0.87-0.456-1.235-0.82
									c-0.729-0.729-1.093-1.684-1.093-2.639s0.365-1.91,1.094-2.639c1.686-1.686,3.65-2.992,5.788-3.878s4.451-1.35,6.834-1.35
									c2.297,0,4.536,0.435,6.618,1.266c2.081,0.83,4.005,2.056,5.671,3.637c0.747,0.71,1.136,1.655,1.161,2.61
									c0.025,0.955-0.315,1.919-1.024,2.667c-0.711,0.747-1.657,1.137-2.611,1.161c-0.955,0.025-1.918-0.315-2.666-1.024
									c-0.968-0.919-2.087-1.632-3.297-2.115c-1.211-0.483-2.514-0.736-3.85-0.736c-1.387,0-2.732,0.27-3.977,0.785
									c-1.244,0.515-2.387,1.276-3.368,2.257c-0.365,0.364-0.785,0.637-1.235,0.82
									C349.82,196.035,349.343,196.127,348.865,196.127z"/>
								<path style="fill:#233F52;" d="M385.527,196.127c-0.478,0-0.955-0.091-1.405-0.273c-0.449-0.182-0.87-0.456-1.235-0.82
									c-0.729-0.729-1.093-1.684-1.093-2.639s0.365-1.91,1.094-2.639c1.686-1.686,3.65-2.992,5.788-3.878
									c2.138-0.885,4.451-1.35,6.834-1.35c2.297,0,4.536,0.435,6.618,1.266s4.005,2.056,5.671,3.637
									c0.747,0.71,1.136,1.655,1.161,2.61c0.025,0.955-0.315,1.919-1.024,2.667c-0.711,0.747-1.657,1.137-2.611,1.161
									c-0.955,0.025-1.918-0.315-2.666-1.024c-0.968-0.919-2.087-1.632-3.297-2.115c-1.211-0.483-2.514-0.736-3.85-0.736
									c-1.387,0-2.732,0.27-3.977,0.785c-1.244,0.515-2.387,1.276-3.368,2.257c-0.365,0.364-0.785,0.637-1.235,0.82
									C386.482,196.035,386.004,196.127,385.527,196.127z"/>
							</g>
							<path style="fill:#FFFFFF;" d="M395.431,229.379H377.2h-18.232c-0.412,0-0.765,0.198-0.987,0.494
								c-0.221,0.297-0.311,0.693-0.196,1.089c0.552,1.911,1.867,5.672,4.812,8.888c2.945,3.216,7.52,5.886,14.591,5.616
								c7.738-0.296,12.336-2.949,15.13-6.02c2.794-3.071,3.784-6.559,4.309-8.526c0.104-0.39,0.007-0.775-0.217-1.063
								C396.186,229.57,395.835,229.379,395.431,229.379z"/>
							<path style="fill:#FF917F;" d="M380.732,218.342h-4.013h-4.013c-0.848,0-1.563-0.427-1.987-1.052
								c-0.424-0.624-0.559-1.446-0.247-2.235l3.006-7.596l3.006-7.596c0.16-0.405,0.531-0.598,0.894-0.584
								c0.363,0.013,0.719,0.232,0.849,0.648l2.399,7.647l2.399,7.647c0.243,0.774,0.075,1.554-0.356,2.141
								C382.237,217.949,381.543,218.342,380.732,218.342z"/>
						</g>
					</g>
					<g>
						<g>
							<g>
								<path style="fill:#2E7EDD;" d="M451.059,289.682c-4.2-9.446-14.99-15.978-27.446-16.616h-4.677
									c7.478,0,13.869,3.334,16.366,8.21c3.224,6.296,6.197,25.589,8.388,43.571c6.188-1.89,12.461-3.549,18.781-5.077
									L451.059,289.682z"/>
							</g>
							<g>
								<path style="fill:#375060;" d="M304.172,289.682c4.2-9.446,14.99-15.978,27.446-16.616h4.677
									c-7.478,0-13.869,3.334-16.365,8.21c-3.224,6.296-6.198,25.589-8.388,43.571c-6.188-1.89-12.461-3.549-18.78-5.077
									L304.172,289.682z"/>
							</g>
						</g>
					</g>
					<path style="fill:#233F52;" d="M363.587,204.682c0,1.345-0.545,2.563-1.427,3.444c-0.881,0.882-2.099,1.427-3.444,1.427
						c-1.345,0-2.563-0.545-3.444-1.427c-0.881-0.881-1.427-2.099-1.427-3.444c0-1.345,0.545-2.563,1.427-3.444
						c0.882-0.882,2.099-1.427,3.444-1.427c1.345,0,2.563,0.545,3.444,1.427C363.041,202.12,363.587,203.337,363.587,204.682z"/>
					<path style="fill:#233F52;" d="M400.248,204.682c0,1.345-0.545,2.563-1.426,3.444c-0.882,0.882-2.099,1.427-3.444,1.427
						s-2.563-0.545-3.444-1.427c-0.882-0.881-1.427-2.099-1.427-3.444c0-1.345,0.545-2.563,1.427-3.444
						c0.881-0.882,2.099-1.427,3.444-1.427s2.563,0.545,3.444,1.427C399.703,202.12,400.248,203.337,400.248,204.682z"/>
				</g>
				<path style="fill:#FFB3A2;" d="M447.378,385.977v53.925c0,6.915-5.606,12.52-12.52,12.52l12.5,36.078c0,0,22-25.5,25.5-98.595
					c0.084-1.762,0.105-3.623,0.073-5.554c-1.115-0.914-2.302-1.716-3.573-2.352C463.173,378.564,453.684,380.323,447.378,385.977z"
					/>
				<path style="fill:#FF917F;" d="M443.689,324.847l3.689,52.653v8.477c6.306-5.654,15.795-7.413,21.98-3.977
					c1.271,0.635,2.457,1.437,3.573,2.352c-0.425-25.764-10.46-64.582-10.46-64.582L443.689,324.847z"/>
				<path style="fill:#FF917F;" d="M307.42,379.149V377.5l3.689-52.653l-18.781-5.077c0,0-9.179,35.503-10.353,61.137
					C289.817,376.381,298.845,374.996,307.42,379.149z"/>
				<path style="fill:#FFB3A2;" d="M307.42,439.902v-60.753c-8.575-4.154-17.603-2.768-25.445,1.758
					c-0.146,3.18-0.168,6.208-0.035,8.998c3.5,73.095,25.5,98.595,25.5,98.595l12.5-36.078
					C313.025,452.422,307.42,446.817,307.42,439.902z"/>
				<path style="fill:#233F52;" d="M340.369,167.137c0,0,12.224,14.58,37.481,14.971c25.257,0.392,55.007-18.358,47.096-41.017
					c-7.31-20.937-39.466-21.863-43.153,4.023C381.794,145.114,358.631,140.273,340.369,167.137z"/>
			</g>
		</g>
		<g>
			<g>
				<g>
					<path style="fill:#233F52;" d="M316.916,115.722c0-14.379-11.656-26.035-26.035-26.035c-14.379,0-26.035,11.656-26.035,26.035
						c0,6.638,2.488,12.693,6.578,17.292c-2.462,3.71-3.9,8.159-3.9,12.945c0,0.213,0.01,0.424,0.016,0.636
						c-10.003,3.35-17.214,12.789-17.214,23.92c0,13.932,11.294,25.227,25.227,25.227c13.932,0,25.227-11.294,25.227-25.227
						c0-1.076-0.075-2.134-0.206-3.174c8.154-3.67,13.834-11.86,13.834-21.381c0-4.834-1.465-9.326-3.973-13.058
						C314.467,128.315,316.916,122.306,316.916,115.722z"/>
					<path style="fill:#233F52;" d="M232.796,146.594c0.006-0.212,0.016-0.423,0.016-0.636c0-4.786-1.438-9.235-3.9-12.945
						c4.09-4.599,6.579-10.653,6.579-17.292c0-14.379-11.656-26.035-26.035-26.035s-26.035,11.656-26.035,26.035
						c0,6.584,2.449,12.594,6.48,17.178c-2.508,3.732-3.973,8.224-3.973,13.058c0,9.522,5.68,17.711,13.834,21.381
						c-0.131,1.04-0.206,2.098-0.206,3.174c0,13.932,11.294,25.227,25.227,25.227c13.932,0,25.227-11.294,25.227-25.227
						C250.01,159.383,242.799,149.944,232.796,146.594z"/>
				</g>
			</g>
			<g>
				<path style="fill:#2E7EDD;" d="M330.852,494.339V268.844c0-8.452-3.426-16.104-8.965-21.643
					c-5.539-5.539-13.191-8.965-21.643-8.965H200.092c-8.452,0-16.104,3.426-21.643,8.965c-5.539,5.539-8.965,13.191-8.965,21.643
					v225.495H330.852z"/>
				<rect x="169.485" y="445.126" style="fill:#233F52;" width="161.367" height="54.874"/>
				<rect x="169.485" y="428.61" style="fill:#1666B9;" width="161.367" height="16.516"/>
				<path style="fill:#1666B9;" d="M210.244,256.612c0.084,0.051,0.171,0.099,0.258,0.144c15.797,8.156,34.097,11.275,51.293,8.691
					c15.655-2.352,30.396-9.429,41.502-21.732c1.615-1.789,0.658-4.699-1.724-5.068c-0.017-0.003-0.035-0.005-0.052-0.008
					c-1.726-0.265-3.494-0.403-5.295-0.403h-46.058h-46.058c-1.705,0-3.38,0.125-5.018,0.365c-0.153,0.022-0.306,0.046-0.458,0.07
					c-2.18,0.349-3.253,2.88-2.017,4.709c1.374,2.032,2.873,3.959,4.528,5.76C203.753,251.976,206.746,254.496,210.244,256.612z"/>
				<g>
					<g>
						<g>
							<path style="fill:#FF917F;" d="M221.186,167.137c0,3.637-1.474,6.93-3.857,9.313c-2.383,2.383-5.676,3.858-9.313,3.858
								c-3.637,0-6.93-1.474-9.313-3.858c-2.383-2.384-3.858-5.676-3.858-9.313c0-3.637,1.474-6.93,3.858-9.313
								c2.383-2.383,5.676-3.857,9.313-3.857c3.637,0,6.93,1.474,9.313,3.857C219.712,160.207,221.186,163.5,221.186,167.137z"/>
							<path style="fill:#FF917F;" d="M304.981,167.137c0,3.637-1.474,6.93-3.858,9.313c-2.384,2.383-5.676,3.858-9.313,3.858
								c-3.637,0-6.93-1.474-9.313-3.858c-2.383-2.384-3.858-5.676-3.858-9.313c0-3.637,1.474-6.93,3.858-9.313
								c2.383-2.383,5.676-3.857,9.313-3.857c3.637,0,6.93,1.474,9.313,3.857C303.507,160.207,304.981,163.5,304.981,167.137z"/>
						</g>
						<path style="fill:#233F52;" d="M302.103,141.091c0,14.7-5.842,28.009-15.286,37.642s-22.492,15.592-36.904,15.592
							c-14.412,0-27.46-5.958-36.904-15.592c-9.445-9.633-15.286-22.942-15.286-37.642c0-14.7,5.842-28.008,15.286-37.642
							c9.445-9.633,22.492-15.592,36.904-15.592c14.412,0,27.46,5.959,36.904,15.592
							C296.262,113.083,302.103,126.391,302.103,141.091z"/>
						<path style="fill:#FF917F;" d="M207.432,147.829v45.184v45.184c6.1,4.023,12.801,7.208,19.941,9.388
							c7.14,2.18,14.718,3.354,22.571,3.354c7.84,0,15.406-1.17,22.535-3.343c7.129-2.173,13.821-5.349,19.915-9.359v-45.204
							v-45.204h-42.481H207.432z"/>
						<path style="fill:#FFB3A2;" d="M254.842,223.433h-4.93h-4.93c-10.37,0-19.757-4.203-26.553-10.999
							c-6.795-6.795-10.999-16.183-10.999-26.553v-26.323v-26.323c0-10.369,4.203-19.757,10.999-26.553
							c6.796-6.795,16.183-10.998,26.553-10.998h4.93h4.93c10.37,0,19.757,4.203,26.553,10.998
							c6.795,6.795,10.999,16.183,10.999,26.553v26.323v26.323c0,10.37-4.203,19.757-10.999,26.553
							C274.6,219.23,265.212,223.433,254.842,223.433z"/>
						<path style="fill:none;stroke:#A93600;stroke-width:5;stroke-linecap:round;stroke-linejoin:round;stroke-miterlimit:10;" d="
							M218.527,160.613"/>
						<path style="fill:#FF917F;" d="M246.874,213.949v-2.183v-2.183c0-0.836,0.342-1.595,0.893-2.146
							c0.551-0.551,1.31-0.893,2.146-0.893l0,0l0,0c0.836,0,1.595,0.342,2.146,0.893c0.551,0.551,0.893,1.311,0.893,2.146v2.183
							v2.183c0,0.836-0.342,1.595-0.893,2.146c-0.551,0.551-1.31,0.893-2.146,0.893l0,0l0,0c-0.836,0-1.595-0.342-2.146-0.893
							C247.216,215.544,246.874,214.784,246.874,213.949z"/>
						<path style="fill:#233F52;" d="M217.231,149.522c-0.551,0-1.102-0.105-1.62-0.315c-0.518-0.21-1.004-0.525-1.424-0.946
							c-0.84-0.841-1.261-1.943-1.26-3.044c0-1.102,0.421-2.203,1.261-3.044c1.945-1.944,4.21-3.451,6.676-4.473
							c2.466-1.021,5.133-1.557,7.883-1.557c2.649,0,5.232,0.502,7.633,1.46c2.401,0.958,4.619,2.371,6.54,4.195
							c0.862,0.818,1.31,1.909,1.339,3.01c0.029,1.101-0.363,2.213-1.181,3.076c-0.821,0.862-1.911,1.311-3.012,1.34
							c-1.101,0.029-2.213-0.363-3.075-1.182c-1.117-1.06-2.407-1.882-3.803-2.439c-1.396-0.557-2.899-0.849-4.441-0.849
							c-1.6,0-3.151,0.311-4.586,0.906c-1.435,0.594-2.753,1.472-3.885,2.603c-0.42,0.42-0.906,0.735-1.424,0.945
							C218.332,149.417,217.781,149.522,217.231,149.522z"/>
						<path style="fill:#233F52;" d="M259.515,149.522c-0.551,0-1.102-0.105-1.62-0.315c-0.518-0.21-1.004-0.525-1.424-0.946
							c-0.84-0.841-1.26-1.943-1.26-3.044c0-1.102,0.421-2.203,1.261-3.044c1.945-1.944,4.21-3.451,6.676-4.473
							c2.466-1.021,5.133-1.557,7.883-1.557c2.649,0,5.232,0.502,7.633,1.46c2.401,0.958,4.619,2.371,6.54,4.195
							c0.862,0.818,1.31,1.909,1.339,3.01c0.029,1.101-0.363,2.213-1.181,3.076c-0.821,0.862-1.911,1.311-3.012,1.34
							c-1.101,0.029-2.212-0.363-3.075-1.182c-1.117-1.06-2.407-1.882-3.803-2.439c-1.396-0.557-2.899-0.849-4.441-0.849
							c-1.6,0-3.152,0.311-4.586,0.906c-1.435,0.594-2.753,1.472-3.885,2.603c-0.42,0.42-0.906,0.735-1.424,0.945
							C260.616,149.417,260.066,149.522,259.515,149.522z"/>
					</g>
					<path style="fill:#FFFFFF;" d="M270.939,182.108h-21.028h-21.028c-0.476,0-0.883,0.228-1.138,0.57
						c-0.255,0.342-0.358,0.799-0.226,1.256c0.636,2.204,2.153,6.542,5.55,10.251c3.397,3.709,8.674,6.789,16.829,6.477
						c8.925-0.341,14.228-3.401,17.45-6.943c3.222-3.542,4.365-7.565,4.969-9.834c0.12-0.45,0.008-0.894-0.25-1.226
						C271.809,182.327,271.404,182.108,270.939,182.108z"/>
					<path style="fill:#FF917F;" d="M255.448,175.145h-6.092h-6.092c-1.287,0-2.372-0.649-3.016-1.597
						c-0.644-0.948-0.849-2.195-0.375-3.392l4.563-11.53l4.563-11.53c0.244-0.615,0.806-0.907,1.357-0.887
						c0.551,0.02,1.091,0.352,1.289,0.984l3.641,11.607l3.641,11.607c0.368,1.175,0.114,2.359-0.54,3.25
						C257.733,174.548,256.679,175.145,255.448,175.145z"/>
				</g>
			</g>
			<path style="fill:#233F52;" d="M295.18,99.251c0.556-1.831,0.857-3.773,0.857-5.786c0-10.992-8.911-19.902-19.902-19.902
				c-0.969,0-1.92,0.073-2.852,0.207c-4.814-5.677-11.994-9.284-20.02-9.284c-7.745,0-14.705,3.357-19.509,8.694
				c-2.143-0.599-4.4-0.926-6.735-0.926c-13.796,0-24.981,11.184-24.981,24.981c0,5.636,1.868,10.836,5.017,15.016
				c-6.696,3.152-11.333,9.957-11.333,17.849c0,10.891,8.829,19.72,19.72,19.72c10.891,0,19.72-8.829,19.72-19.72
				c0-1.167-0.107-2.308-0.302-3.42c3.187,1.392,6.703,2.169,10.403,2.169c11.05,0,20.485-6.893,24.256-16.611
				c0.033,0.012,0.068,0.022,0.101,0.034c-0.123,0.839-0.207,1.69-0.207,2.563c0,9.72,7.88,17.6,17.6,17.6
				c9.72,0,17.6-7.88,17.6-17.6C304.614,108.063,300.785,102.195,295.18,99.251z"/>
			<g>
				<g>
					<path style="fill:#1666B9;" d="M303.442,238.262c14.366,0.915,26.811,10.289,31.655,23.844l31.263,102.557
						c5.288,17.346-7.69,34.869-25.824,34.869h-43.561c-18.73,0-33.914-15.184-33.914-33.914l0,0l53.357-96.153
						c7.771-14.003-2.356-31.204-18.371-31.204l0,0H303.442z"/>
					<path style="fill:#FFB3A2;" d="M298.466,384.895h-28.24c-6.6,0-11.951-5.351-11.951-11.951l0,0
						c0-6.6,5.351-11.951,11.951-11.951h28.24c6.6,0,11.951,5.35,11.951,11.951l0,0
						C310.417,379.544,305.066,384.895,298.466,384.895z"/>
				</g>
				<g>
					<path style="fill:#1666B9;" d="M196.895,238.262c-14.366,0.915-26.811,10.289-31.655,23.844l-31.263,102.557
						c-5.288,17.346,7.69,34.869,25.824,34.869h43.561c18.73,0,33.914-15.184,33.914-33.914l0,0l-53.357-96.153
						c-7.771-14.003,2.356-31.204,18.371-31.204l0,0H196.895z"/>
					<path style="fill:#FFB3A2;" d="M201.871,384.895h28.24c6.6,0,11.951-5.351,11.951-11.951l0,0c0-6.6-5.35-11.951-11.951-11.951
						h-28.24c-6.6,0-11.951,5.35-11.951,11.951l0,0C189.921,379.544,195.271,384.895,201.871,384.895z"/>
				</g>
			</g>
			<g>
				<g>
					<g>
						<path style="fill:#233F52;" d="M284.018,259.255h47.499c2.437,0,4.413,1.976,4.413,4.413v101.055H166.034V263.667
							c0-2.436,1.977-4.413,4.415-4.413h52.278H284.018z"/>
					</g>
					<g>
						<g>
							<path style="fill:#CFE4E9;" d="M335.931,364.722H166.034h-10.203v3.864c0,2.524,2.047,4.573,4.572,4.573h181.162
								c2.524,0,4.57-2.049,4.57-4.573v-3.864H335.931z"/>
						</g>
					</g>
					<g>
						<g>
							<path style="fill:#A8CED7;" d="M271.994,364.722h-42.023h-5.102v1.932c0,1.262,1.023,2.286,2.286,2.286h47.655
								c1.262,0,2.285-1.024,2.285-2.286v-1.932H271.994z"/>
						</g>
					</g>
					<g>
						<polygon style="fill:#FFFFFF;" points="284.219,265.911 284.051,265.911 222.971,265.911 222.446,265.911 172.655,265.911 
							172.655,315.926 172.655,357.924 329.311,357.924 329.311,319.87 329.311,265.911 						"/>
					</g>
					<g>
						<polygon style="fill:#DDDEE0;" points="284.219,274.822 284.051,274.822 222.971,274.822 222.446,274.822 172.655,274.822 
							172.655,319.993 172.655,357.924 329.311,357.924 329.311,323.555 329.311,274.822 						"/>
					</g>
					<g>
						<polygon style="fill:#CECFD2;" points="179.479,274.822 179.469,274.822 175.733,274.822 175.701,274.822 172.655,274.822 
							172.655,319.993 172.655,357.924 182.238,357.924 182.238,323.555 182.238,274.822 						"/>
					</g>
					<g>
						<g>
							<g>
								<rect x="187.777" y="283.628" style="fill:#E45C50;" width="31.697" height="4.271"/>
							</g>
							<g>
								<rect x="224.599" y="283.628" style="fill:#1495D0;" width="17.556" height="4.271"/>
							</g>
							<g>
								<rect x="247.279" y="283.628" style="fill:#5DC09B;" width="20.219" height="4.271"/>
							</g>
						</g>
						<g>
							<g>
								<rect x="187.777" y="292.191" style="fill:#1495D0;" width="17.556" height="4.271"/>
							</g>
							<g>
								<rect x="210.458" y="292.191" style="fill:#5DC09B;" width="24.298" height="4.271"/>
							</g>
						</g>
						<g>
							<g>
								<rect x="187.777" y="300.755" style="fill:#1495D0;" width="31.697" height="4.271"/>
							</g>
							<g>
								<rect x="224.599" y="300.755" style="fill:#E45C50;" width="29.077" height="4.271"/>
							</g>
							<g>
								<rect x="258.801" y="300.755" style="fill:#5DC09B;" width="20.361" height="4.271"/>
							</g>
						</g>
						<g>
							<g>
								<rect x="187.777" y="309.318" style="fill:#5DC09B;" width="23.948" height="4.271"/>
							</g>
							<g>
								<rect x="216.85" y="309.318" style="fill:#1495D0;" width="26.226" height="4.271"/>
							</g>
						</g>
						<g>
							<g>
								<rect x="187.777" y="317.882" style="fill:#E45C50;" width="31.697" height="4.271"/>
							</g>
							<g>
								<rect x="224.599" y="317.882" style="fill:#5DC09B;" width="23.991" height="4.271"/>
							</g>
							<g>
								<rect x="253.714" y="317.882" style="fill:#1495D0;" width="13.784" height="4.271"/>
							</g>
						</g>
						<g>
							<g>
								<rect x="187.777" y="326.445" style="fill:#1495D0;" width="17.556" height="4.271"/>
							</g>
							<g>
								<rect x="210.458" y="326.445" style="fill:#5DC09B;" width="24.298" height="4.271"/>
							</g>
						</g>
						<g>
							<g>
								<rect x="187.777" y="335.009" style="fill:#1495D0;" width="31.697" height="4.271"/>
							</g>
							<g>
								<rect x="224.599" y="335.009" style="fill:#E45C50;" width="29.077" height="4.271"/>
							</g>
							<g>
								<rect x="258.801" y="335.009" style="fill:#5DC09B;" width="20.361" height="4.271"/>
							</g>
						</g>
						<g>
							<g>
								<rect x="187.777" y="343.573" style="fill:#5DC09B;" width="23.948" height="4.271"/>
							</g>
							<g>
								<rect x="216.85" y="343.573" style="fill:#1495D0;" width="26.226" height="4.271"/>
							</g>
						</g>
					</g>
					<rect x="177.835" y="283.628" style="fill:#FFFFFF;" width="4.403" height="64.216"/>
				</g>
			</g>
			
				<ellipse transform="matrix(0.6727 -0.74 0.74 0.6727 -29.2716 252.6122)" style="fill:#FFCCC1;stroke:#233F52;stroke-width:4;stroke-miterlimit:10;" cx="270.876" cy="159.39" rx="14.276" ry="14.276"/>
			
				<ellipse transform="matrix(0.7071 -0.7071 0.7071 0.7071 -45.7526 208.3233)" style="fill:#FFCCC1;stroke:#233F52;stroke-width:4;stroke-miterlimit:10;" cx="228.592" cy="159.39" rx="14.276" ry="14.276"/>
			<path style="fill:#233F52;" d="M234.21,159.39c0,1.551-0.629,2.956-1.645,3.972c-1.016,1.017-2.421,1.645-3.972,1.645
				c-1.551,0-2.956-0.629-3.972-1.645c-1.017-1.017-1.645-2.421-1.645-3.972c0-1.551,0.629-2.956,1.645-3.972
				c1.017-1.017,2.421-1.645,3.972-1.645c1.551,0,2.956,0.629,3.972,1.645C233.581,156.434,234.21,157.839,234.21,159.39z"/>
			<path style="fill:#233F52;" d="M276.494,159.39c0,1.551-0.629,2.956-1.645,3.972c-1.017,1.017-2.421,1.645-3.972,1.645
				c-1.551,0-2.956-0.629-3.972-1.645c-1.017-1.017-1.646-2.421-1.646-3.972c0-1.551,0.629-2.956,1.646-3.972
				c1.017-1.017,2.421-1.645,3.972-1.645c1.551,0,2.956,0.629,3.972,1.645C275.865,156.434,276.494,157.839,276.494,159.39z"/>
			<g>
				<path style="fill:none;stroke:#233F52;stroke-width:4;stroke-linecap:round;stroke-linejoin:round;stroke-miterlimit:10;" d="
					M242.868,160.015c0-3.792,3.074-6.866,6.866-6.866c3.792,0,6.866,3.074,6.866,6.866"/>
			</g>
			<g>
				
					<line style="fill:none;stroke:#233F52;stroke-width:4;stroke-linecap:round;stroke-linejoin:round;stroke-miterlimit:10;" x1="284.928" y1="153.966" x2="300.455" y2="153.966"/>
				
					<line style="fill:none;stroke:#233F52;stroke-width:4;stroke-linecap:round;stroke-linejoin:round;stroke-miterlimit:10;" x1="199.014" y1="153.966" x2="214.541" y2="153.966"/>
			</g>
		</g>
	</g>
</g>
<g id="DESIGNED_BY_FREEPIK">
	<g>
		<g>
			<g>
				<path style="fill:#FFFFFF;" d="M180.308,482.639v-0.161c-0.218,0.249-0.432,0.452-0.644,0.608
					c-0.212,0.157-0.441,0.276-0.689,0.357c-0.247,0.082-0.517,0.122-0.81,0.122c-0.388,0-0.747-0.082-1.078-0.246
					c-0.33-0.164-0.616-0.399-0.857-0.704c-0.242-0.305-0.425-0.662-0.549-1.074c-0.125-0.412-0.187-0.857-0.187-1.335
					c0-1.013,0.247-1.803,0.742-2.369c0.495-0.565,1.146-0.848,1.953-0.848c0.467,0,0.861,0.081,1.181,0.24
					c0.321,0.16,0.633,0.408,0.938,0.739v-2.392c0-0.333,0.066-0.583,0.199-0.754c0.132-0.17,0.321-0.255,0.567-0.255
					c0.245,0,0.434,0.078,0.567,0.234c0.133,0.157,0.199,0.386,0.199,0.691v7.147c0,0.309-0.071,0.54-0.214,0.695
					c-0.143,0.154-0.326,0.231-0.552,0.231c-0.221,0-0.405-0.08-0.549-0.24C180.38,483.164,180.308,482.935,180.308,482.639z
					 M177.12,480.258c0,0.439,0.068,0.813,0.205,1.122c0.137,0.309,0.324,0.541,0.561,0.697c0.238,0.157,0.497,0.236,0.778,0.236
					c0.285,0,0.545-0.075,0.781-0.223c0.235-0.148,0.423-0.376,0.564-0.682c0.141-0.307,0.211-0.691,0.211-1.149
					c0-0.432-0.07-0.803-0.211-1.114c-0.14-0.31-0.33-0.547-0.57-0.712c-0.24-0.164-0.502-0.245-0.786-0.245
					c-0.297,0-0.562,0.084-0.796,0.252c-0.234,0.168-0.415,0.409-0.543,0.724C177.184,479.478,177.12,479.843,177.12,480.258z"/>
				<path style="fill:#FFFFFF;" d="M187.454,480.668h-3.17c0.004,0.367,0.078,0.692,0.223,0.973
					c0.144,0.281,0.336,0.493,0.576,0.635c0.24,0.143,0.504,0.213,0.793,0.213c0.194,0,0.371-0.022,0.531-0.067
					c0.16-0.047,0.315-0.117,0.466-0.214c0.15-0.096,0.289-0.201,0.415-0.312c0.126-0.111,0.29-0.262,0.493-0.452
					c0.083-0.071,0.202-0.107,0.357-0.107c0.166,0,0.3,0.046,0.403,0.137c0.103,0.091,0.155,0.219,0.155,0.386
					c0,0.147-0.058,0.317-0.172,0.513c-0.116,0.196-0.289,0.384-0.52,0.564c-0.232,0.18-0.522,0.329-0.873,0.448
					c-0.35,0.119-0.753,0.178-1.208,0.178c-1.04,0-1.85-0.297-2.428-0.891c-0.578-0.593-0.866-1.399-0.866-2.416
					c0-0.479,0.071-0.923,0.213-1.332c0.143-0.41,0.351-0.761,0.623-1.054c0.273-0.293,0.609-0.517,1.01-0.674
					c0.399-0.156,0.843-0.234,1.33-0.234c0.633,0,1.176,0.132,1.629,0.4c0.454,0.267,0.794,0.612,1.019,1.035
					c0.225,0.424,0.338,0.856,0.338,1.294c0,0.408-0.117,0.672-0.35,0.793C188.206,480.607,187.878,480.668,187.454,480.668z
					 M184.284,479.748h2.939c-0.039-0.554-0.189-0.969-0.448-1.244c-0.259-0.275-0.6-0.413-1.024-0.413
					c-0.404,0-0.735,0.139-0.994,0.418C184.497,478.789,184.34,479.202,184.284,479.748z"/>
				<path style="fill:#FFFFFF;" d="M194.838,481.445c0,0.447-0.108,0.831-0.327,1.149c-0.217,0.319-0.539,0.56-0.965,0.725
					c-0.425,0.164-0.943,0.246-1.552,0.246c-0.582,0-1.08-0.089-1.496-0.267c-0.415-0.178-0.722-0.401-0.92-0.667
					c-0.198-0.268-0.297-0.535-0.297-0.805c0-0.178,0.063-0.33,0.19-0.457c0.126-0.126,0.287-0.19,0.481-0.19
					c0.17,0,0.3,0.042,0.391,0.125c0.091,0.083,0.179,0.2,0.261,0.35c0.166,0.29,0.366,0.504,0.597,0.648
					c0.231,0.142,0.547,0.214,0.947,0.214c0.324,0,0.59-0.073,0.798-0.217c0.208-0.145,0.311-0.31,0.311-0.496
					c0-0.285-0.107-0.492-0.324-0.623c-0.216-0.131-0.571-0.256-1.066-0.375c-0.558-0.138-1.012-0.284-1.362-0.436
					c-0.35-0.151-0.63-0.353-0.84-0.602c-0.21-0.25-0.315-0.557-0.315-0.92c0-0.324,0.097-0.631,0.291-0.92
					c0.194-0.288,0.48-0.519,0.859-0.691c0.377-0.173,0.833-0.259,1.367-0.259c0.42,0,0.797,0.043,1.131,0.131
					c0.335,0.086,0.614,0.204,0.837,0.35c0.224,0.146,0.394,0.308,0.51,0.486c0.117,0.178,0.175,0.352,0.175,0.523
					c0,0.186-0.062,0.338-0.186,0.457c-0.124,0.118-0.301,0.178-0.532,0.178c-0.166,0-0.308-0.048-0.424-0.143
					c-0.117-0.095-0.25-0.237-0.401-0.427c-0.123-0.158-0.266-0.285-0.433-0.38c-0.166-0.095-0.392-0.142-0.677-0.142
					c-0.293,0-0.536,0.062-0.73,0.187c-0.194,0.124-0.291,0.279-0.291,0.465c0,0.171,0.071,0.31,0.213,0.419
					c0.143,0.109,0.334,0.2,0.576,0.27c0.242,0.071,0.573,0.158,0.997,0.261c0.502,0.123,0.912,0.27,1.231,0.44
					c0.318,0.17,0.56,0.371,0.725,0.603C194.756,480.884,194.838,481.148,194.838,481.445z"/>
				<path style="fill:#FFFFFF;" d="M196.494,476.222c-0.225,0-0.418-0.07-0.579-0.208c-0.16-0.138-0.24-0.334-0.24-0.588
					c0-0.23,0.082-0.418,0.246-0.567c0.164-0.149,0.355-0.223,0.573-0.223c0.21,0,0.396,0.067,0.558,0.202
					c0.162,0.135,0.244,0.33,0.244,0.588c0,0.25-0.08,0.444-0.238,0.585C196.899,476.151,196.711,476.222,196.494,476.222z
					 M197.295,477.896v4.683c0,0.325-0.077,0.571-0.232,0.737c-0.155,0.166-0.35,0.249-0.588,0.249
					c-0.238,0-0.431-0.085-0.579-0.255c-0.149-0.17-0.222-0.414-0.222-0.731v-4.636c0-0.32,0.074-0.561,0.222-0.724
					c0.148-0.162,0.341-0.244,0.579-0.244c0.238,0,0.433,0.081,0.588,0.244C197.218,477.381,197.295,477.607,197.295,477.896z"/>
				<path style="fill:#FFFFFF;" d="M204.395,478.163v4.707c0,0.538-0.058,1.001-0.173,1.39c-0.114,0.387-0.298,0.708-0.552,0.961
					c-0.253,0.253-0.585,0.441-0.994,0.563c-0.41,0.123-0.919,0.184-1.529,0.184c-0.558,0-1.057-0.078-1.496-0.234
					c-0.439-0.157-0.777-0.358-1.015-0.605c-0.237-0.247-0.357-0.502-0.357-0.763c0-0.198,0.068-0.359,0.202-0.483
					c0.134-0.125,0.297-0.187,0.486-0.187c0.237,0,0.445,0.105,0.623,0.314c0.087,0.107,0.177,0.216,0.27,0.324
					c0.093,0.109,0.197,0.202,0.309,0.28c0.113,0.076,0.249,0.134,0.407,0.172c0.158,0.037,0.341,0.056,0.546,0.056
					c0.42,0,0.745-0.058,0.977-0.175c0.232-0.117,0.394-0.28,0.487-0.49c0.093-0.209,0.147-0.433,0.163-0.673
					c0.016-0.24,0.027-0.624,0.035-1.155c-0.25,0.349-0.537,0.615-0.864,0.797c-0.326,0.182-0.715,0.273-1.166,0.273
					c-0.542,0-1.016-0.139-1.422-0.416c-0.405-0.277-0.717-0.665-0.935-1.163c-0.218-0.499-0.326-1.074-0.326-1.727
					c0-0.486,0.066-0.927,0.198-1.318c0.133-0.393,0.322-0.723,0.567-0.992c0.245-0.269,0.528-0.472,0.849-0.609
					c0.321-0.136,0.673-0.204,1.057-0.204c0.459,0,0.857,0.089,1.193,0.264c0.336,0.177,0.649,0.453,0.938,0.829v-0.22
					c0-0.281,0.069-0.498,0.208-0.653c0.139-0.154,0.317-0.231,0.535-0.231c0.313,0,0.52,0.103,0.623,0.306
					C204.343,477.485,204.395,477.779,204.395,478.163z M199.699,480.217c0,0.657,0.143,1.154,0.43,1.49
					c0.287,0.337,0.658,0.505,1.113,0.505c0.269,0,0.523-0.073,0.762-0.217c0.24-0.145,0.435-0.363,0.585-0.653
					c0.15-0.291,0.225-0.644,0.225-1.06c0-0.66-0.145-1.176-0.436-1.543c-0.291-0.368-0.674-0.552-1.149-0.552
					c-0.463,0-0.834,0.176-1.113,0.529C199.838,479.067,199.699,479.568,199.699,480.217z"/>
				<path style="fill:#FFFFFF;" d="M206.97,477.872v0.196c0.285-0.376,0.596-0.652,0.935-0.828c0.338-0.176,0.727-0.264,1.166-0.264
					c0.428,0,0.809,0.094,1.146,0.28c0.336,0.186,0.588,0.449,0.753,0.789c0.107,0.198,0.176,0.413,0.208,0.642
					c0.032,0.23,0.048,0.522,0.048,0.879v3.015c0,0.325-0.075,0.571-0.223,0.737c-0.148,0.166-0.341,0.249-0.578,0.249
					c-0.242,0-0.437-0.085-0.588-0.255c-0.151-0.17-0.226-0.414-0.226-0.731v-2.701c0-0.534-0.074-0.943-0.223-1.226
					c-0.149-0.283-0.444-0.425-0.888-0.425c-0.288,0-0.552,0.086-0.789,0.258c-0.237,0.173-0.412,0.409-0.522,0.71
					c-0.079,0.242-0.119,0.692-0.119,1.353v2.03c0,0.328-0.077,0.576-0.228,0.74c-0.152,0.164-0.349,0.246-0.59,0.246
					c-0.234,0-0.426-0.085-0.576-0.255c-0.15-0.17-0.225-0.414-0.225-0.731v-4.683c0-0.309,0.067-0.54,0.202-0.692
					c0.135-0.152,0.319-0.228,0.552-0.228c0.143,0,0.272,0.034,0.387,0.101c0.114,0.068,0.207,0.168,0.276,0.302
					C206.935,477.513,206.97,477.678,206.97,477.872z"/>
				<path style="fill:#FFFFFF;" d="M216.829,480.668h-3.169c0.004,0.367,0.078,0.692,0.223,0.973
					c0.144,0.281,0.336,0.493,0.576,0.635c0.239,0.143,0.503,0.213,0.792,0.213c0.194,0,0.371-0.022,0.532-0.067
					c0.16-0.047,0.315-0.117,0.466-0.214c0.15-0.096,0.288-0.201,0.416-0.312c0.126-0.111,0.29-0.262,0.492-0.452
					c0.083-0.071,0.202-0.107,0.356-0.107c0.166,0,0.301,0.046,0.404,0.137c0.103,0.091,0.154,0.219,0.154,0.386
					c0,0.147-0.057,0.317-0.172,0.513c-0.115,0.196-0.288,0.384-0.52,0.564c-0.232,0.18-0.522,0.329-0.872,0.448
					c-0.35,0.119-0.753,0.178-1.208,0.178c-1.041,0-1.85-0.297-2.428-0.891c-0.577-0.593-0.866-1.399-0.866-2.416
					c0-0.479,0.071-0.923,0.214-1.332c0.143-0.41,0.351-0.761,0.624-1.054c0.273-0.293,0.609-0.517,1.009-0.674
					c0.399-0.156,0.843-0.234,1.33-0.234c0.633,0,1.176,0.132,1.629,0.4c0.454,0.267,0.793,0.612,1.019,1.035
					c0.225,0.424,0.338,0.856,0.338,1.294c0,0.408-0.117,0.672-0.35,0.793C217.581,480.607,217.253,480.668,216.829,480.668z
					 M213.659,479.748h2.938c-0.039-0.554-0.189-0.969-0.448-1.244c-0.259-0.275-0.601-0.413-1.024-0.413
					c-0.404,0-0.736,0.139-0.995,0.418C213.871,478.789,213.715,479.202,213.659,479.748z"/>
				<path style="fill:#FFFFFF;" d="M223.435,482.639v-0.161c-0.218,0.249-0.432,0.452-0.644,0.608
					c-0.212,0.157-0.441,0.276-0.688,0.357c-0.247,0.082-0.517,0.122-0.81,0.122c-0.388,0-0.747-0.082-1.078-0.246
					c-0.331-0.164-0.616-0.399-0.858-0.704c-0.242-0.305-0.424-0.662-0.549-1.074c-0.125-0.412-0.187-0.857-0.187-1.335
					c0-1.013,0.247-1.803,0.742-2.369c0.495-0.565,1.146-0.848,1.953-0.848c0.467,0,0.861,0.081,1.181,0.24
					c0.32,0.16,0.633,0.408,0.938,0.739v-2.392c0-0.333,0.066-0.583,0.199-0.754c0.132-0.17,0.322-0.255,0.567-0.255
					c0.245,0,0.434,0.078,0.567,0.234c0.132,0.157,0.199,0.386,0.199,0.691v7.147c0,0.309-0.071,0.54-0.214,0.695
					c-0.143,0.154-0.326,0.231-0.552,0.231c-0.222,0-0.405-0.08-0.549-0.24C223.507,483.164,223.435,482.935,223.435,482.639z
					 M220.248,480.258c0,0.439,0.068,0.813,0.204,1.122c0.137,0.309,0.324,0.541,0.562,0.697c0.237,0.157,0.496,0.236,0.777,0.236
					c0.285,0,0.546-0.075,0.781-0.223c0.236-0.148,0.424-0.376,0.564-0.682c0.141-0.307,0.211-0.691,0.211-1.149
					c0-0.432-0.07-0.803-0.211-1.114c-0.14-0.31-0.33-0.547-0.57-0.712c-0.24-0.164-0.502-0.245-0.787-0.245
					c-0.296,0-0.562,0.084-0.795,0.252c-0.233,0.168-0.414,0.409-0.543,0.724C220.312,479.478,220.248,479.843,220.248,480.258z"/>
				<path style="fill:#FFFFFF;" d="M230.059,475.491v2.475c0.305-0.316,0.615-0.559,0.932-0.727
					c0.316-0.168,0.709-0.252,1.176-0.252c0.538,0,1.01,0.128,1.416,0.382c0.405,0.256,0.72,0.626,0.944,1.111
					c0.223,0.484,0.336,1.06,0.336,1.725c0,0.491-0.063,0.94-0.187,1.35c-0.125,0.41-0.306,0.765-0.543,1.065
					c-0.238,0.301-0.525,0.534-0.864,0.698c-0.339,0.164-0.712,0.246-1.119,0.246c-0.25,0-0.484-0.029-0.703-0.089
					c-0.22-0.059-0.407-0.137-0.561-0.234c-0.154-0.096-0.286-0.197-0.395-0.3c-0.109-0.103-0.253-0.258-0.431-0.463v0.161
					c0,0.305-0.073,0.535-0.22,0.692c-0.146,0.156-0.332,0.234-0.558,0.234c-0.229,0-0.413-0.078-0.549-0.234
					c-0.137-0.157-0.205-0.388-0.205-0.692v-7.076c0-0.328,0.066-0.577,0.198-0.745c0.133-0.168,0.318-0.252,0.555-0.252
					c0.25,0,0.441,0.08,0.576,0.24C229.991,474.966,230.059,475.194,230.059,475.491z M230.136,480.306
					c0,0.645,0.147,1.14,0.442,1.486c0.295,0.347,0.682,0.521,1.161,0.521c0.407,0,0.759-0.177,1.053-0.532
					c0.295-0.355,0.442-0.862,0.442-1.523c0-0.427-0.061-0.796-0.184-1.104c-0.123-0.309-0.297-0.548-0.522-0.715
					c-0.226-0.168-0.489-0.252-0.79-0.252c-0.309,0-0.584,0.084-0.825,0.252c-0.242,0.168-0.431,0.411-0.57,0.73
					C230.205,479.487,230.136,479.866,230.136,480.306z"/>
				<path style="fill:#FFFFFF;" d="M236.963,483.767l0.148-0.363l-1.995-5.022c-0.122-0.288-0.184-0.499-0.184-0.629
					c0-0.139,0.036-0.267,0.107-0.385c0.071-0.119,0.169-0.214,0.294-0.285c0.125-0.072,0.255-0.108,0.389-0.108
					c0.233,0,0.409,0.074,0.529,0.223c0.119,0.148,0.223,0.361,0.314,0.638l1.371,3.989l1.3-3.71c0.102-0.3,0.196-0.536,0.279-0.706
					c0.083-0.17,0.171-0.285,0.264-0.344c0.093-0.06,0.225-0.09,0.395-0.09c0.123,0,0.24,0.032,0.353,0.098
					c0.113,0.065,0.199,0.153,0.261,0.264c0.061,0.111,0.092,0.227,0.092,0.35c-0.016,0.075-0.041,0.182-0.077,0.321
					c-0.036,0.138-0.079,0.279-0.13,0.421l-2.113,5.533c-0.182,0.487-0.36,0.868-0.535,1.145c-0.174,0.277-0.404,0.491-0.691,0.638
					c-0.287,0.149-0.674,0.223-1.161,0.223c-0.475,0-0.831-0.051-1.068-0.154c-0.238-0.104-0.356-0.292-0.356-0.565
					c0-0.186,0.056-0.33,0.169-0.43c0.112-0.101,0.28-0.152,0.501-0.152c0.087,0,0.173,0.012,0.256,0.037
					c0.103,0.023,0.192,0.036,0.267,0.036c0.186,0,0.333-0.028,0.44-0.084c0.107-0.055,0.202-0.151,0.288-0.288
					C236.754,484.233,236.852,484.031,236.963,483.767z"/>
			</g>
			<g>
				<path style="fill:#FFFFFF;" d="M260.439,477.116h0.386v-0.487c0-0.509,0.062-0.911,0.192-1.211
					c0.128-0.299,0.347-0.516,0.654-0.653c0.306-0.135,0.727-0.204,1.26-0.204c0.95,0,1.42,0.23,1.42,0.696
					c0,0.149-0.049,0.278-0.15,0.384c-0.096,0.106-0.214,0.16-0.348,0.16c-0.062,0-0.174-0.012-0.33-0.037
					c-0.148-0.021-0.283-0.035-0.389-0.035c-0.292,0-0.479,0.088-0.566,0.259c-0.079,0.172-0.122,0.418-0.122,0.74v0.386h0.395
					c0.62,0,0.926,0.185,0.926,0.56c0,0.262-0.079,0.432-0.245,0.503c-0.164,0.072-0.39,0.107-0.681,0.107h-0.395v4.294
					c0,0.319-0.075,0.563-0.231,0.73c-0.151,0.17-0.346,0.254-0.589,0.254c-0.229,0-0.419-0.084-0.574-0.254
					c-0.153-0.167-0.228-0.411-0.228-0.73v-4.294h-0.446c-0.243,0-0.427-0.052-0.559-0.164c-0.131-0.107-0.196-0.25-0.196-0.424
					C259.625,477.308,259.896,477.116,260.439,477.116"/>
				<path style="fill:#FFFFFF;" d="M265.745,481.224v1.355c0,0.327-0.083,0.574-0.234,0.737c-0.154,0.166-0.349,0.247-0.586,0.247
					c-0.239,0-0.43-0.082-0.579-0.25c-0.148-0.165-0.225-0.41-0.225-0.734v-4.514c0-0.729,0.262-1.093,0.788-1.093
					c0.271,0,0.465,0.084,0.583,0.255c0.118,0.171,0.184,0.421,0.198,0.755c0.192-0.334,0.39-0.584,0.593-0.755
					c0.208-0.171,0.477-0.255,0.819-0.255c0.343,0,0.67,0.084,0.991,0.255c0.322,0.171,0.482,0.398,0.482,0.678
					c0,0.197-0.069,0.363-0.204,0.488c-0.137,0.131-0.284,0.195-0.441,0.195c-0.062,0-0.207-0.039-0.433-0.112
					c-0.228-0.071-0.43-0.108-0.602-0.108c-0.237,0-0.433,0.064-0.582,0.186c-0.151,0.128-0.269,0.311-0.353,0.554
					c-0.081,0.247-0.137,0.541-0.17,0.878C265.759,480.325,265.745,480.738,265.745,481.224"/>
				<path style="fill:#FFFFFF;" d="M273.196,480.667h-3.171c0.005,0.367,0.078,0.694,0.221,0.974
					c0.147,0.279,0.338,0.491,0.578,0.635c0.241,0.142,0.502,0.212,0.793,0.212c0.194,0,0.37-0.021,0.531-0.07
					c0.159-0.043,0.316-0.116,0.466-0.213c0.151-0.095,0.287-0.199,0.415-0.313c0.126-0.109,0.292-0.26,0.494-0.449
					c0.084-0.071,0.203-0.109,0.355-0.109c0.168,0,0.301,0.046,0.406,0.139c0.104,0.092,0.152,0.219,0.152,0.386
					c0,0.147-0.056,0.317-0.167,0.512c-0.117,0.198-0.289,0.385-0.522,0.566c-0.234,0.178-0.524,0.33-0.874,0.446
					c-0.35,0.119-0.754,0.179-1.207,0.179c-1.044,0-1.852-0.295-2.429-0.889c-0.577-0.595-0.87-1.401-0.87-2.418
					c0-0.479,0.073-0.924,0.217-1.334c0.14-0.411,0.349-0.76,0.624-1.055c0.272-0.294,0.606-0.518,1.008-0.674
					c0.398-0.156,0.842-0.234,1.33-0.234c0.632,0,1.176,0.134,1.629,0.404c0.452,0.264,0.796,0.61,1.018,1.034
					c0.226,0.425,0.339,0.855,0.339,1.296c0,0.405-0.118,0.669-0.351,0.791C273.947,480.606,273.619,480.667,273.196,480.667
					 M270.024,479.745h2.938c-0.039-0.553-0.186-0.969-0.446-1.241c-0.261-0.277-0.599-0.413-1.025-0.413
					c-0.404,0-0.736,0.137-0.995,0.418C270.237,478.788,270.079,479.199,270.024,479.745"/>
				<path style="fill:#FFFFFF;" d="M279.938,480.667h-3.171c0.004,0.367,0.078,0.694,0.222,0.974
					c0.145,0.279,0.337,0.491,0.576,0.635c0.239,0.142,0.504,0.212,0.795,0.212c0.192,0,0.37-0.021,0.528-0.07
					c0.162-0.043,0.316-0.116,0.469-0.213c0.151-0.095,0.288-0.199,0.415-0.313c0.125-0.109,0.29-0.26,0.493-0.449
					c0.084-0.071,0.204-0.109,0.355-0.109c0.168,0,0.302,0.046,0.406,0.139c0.103,0.092,0.15,0.219,0.15,0.386
					c0,0.147-0.054,0.317-0.171,0.512c-0.111,0.198-0.284,0.385-0.519,0.566c-0.231,0.178-0.525,0.33-0.872,0.446
					c-0.349,0.119-0.755,0.179-1.209,0.179c-1.042,0-1.849-0.295-2.429-0.889c-0.577-0.595-0.868-1.401-0.868-2.418
					c0-0.479,0.073-0.924,0.217-1.334c0.141-0.411,0.349-0.76,0.622-1.055c0.272-0.294,0.608-0.518,1.009-0.674
					c0.399-0.156,0.844-0.234,1.331-0.234c0.63,0,1.174,0.134,1.633,0.404c0.45,0.264,0.791,0.61,1.013,1.034
					c0.225,0.425,0.341,0.855,0.341,1.296c0,0.405-0.12,0.669-0.351,0.791C280.688,480.606,280.36,480.667,279.938,480.667
					 M276.767,479.745h2.938c-0.04-0.553-0.19-0.969-0.447-1.241c-0.263-0.277-0.601-0.413-1.027-0.413
					c-0.404,0-0.735,0.137-0.996,0.418C276.978,478.788,276.819,479.199,276.767,479.745"/>
				<path style="fill:#FFFFFF;" d="M283.487,477.884v0.194c0.304-0.375,0.621-0.651,0.953-0.828
					c0.324-0.178,0.699-0.267,1.114-0.267c0.497,0,0.96,0.13,1.38,0.386c0.419,0.259,0.749,0.635,0.993,1.129
					c0.243,0.497,0.366,1.081,0.366,1.758c0,0.497-0.07,0.957-0.21,1.376c-0.14,0.417-0.336,0.767-0.58,1.05
					c-0.246,0.281-0.535,0.501-0.868,0.654c-0.339,0.151-0.695,0.227-1.08,0.227c-0.461,0-0.853-0.093-1.166-0.279
					c-0.314-0.183-0.614-0.458-0.901-0.816v2.433c0,0.71-0.26,1.069-0.778,1.069c-0.306,0-0.505-0.091-0.607-0.275
					c-0.095-0.187-0.146-0.452-0.146-0.807v-6.996c0-0.309,0.066-0.537,0.2-0.692c0.134-0.15,0.32-0.228,0.553-0.228
					c0.231,0,0.416,0.078,0.56,0.234C283.417,477.365,283.487,477.587,283.487,477.884 M286.665,480.239
					c0-0.428-0.067-0.796-0.197-1.102c-0.131-0.308-0.312-0.542-0.541-0.705c-0.229-0.164-0.489-0.248-0.77-0.248
					c-0.446,0-0.824,0.178-1.13,0.527c-0.308,0.354-0.462,0.872-0.462,1.558c0,0.641,0.153,1.146,0.46,1.504
					c0.305,0.358,0.679,0.536,1.133,0.536c0.268,0,0.519-0.079,0.748-0.233c0.232-0.158,0.416-0.392,0.552-0.704
					C286.595,481.06,286.665,480.681,286.665,480.239"/>
				<path style="fill:#FFFFFF;" d="M289.925,476.218c-0.227,0-0.418-0.071-0.577-0.209c-0.162-0.139-0.242-0.333-0.242-0.585
					c0-0.23,0.082-0.419,0.248-0.569c0.164-0.146,0.354-0.222,0.571-0.222c0.212,0,0.397,0.067,0.559,0.2
					c0.162,0.137,0.244,0.334,0.244,0.591c0,0.25-0.079,0.444-0.236,0.585C290.333,476.146,290.145,476.218,289.925,476.218
					 M290.727,477.892v4.689c0,0.322-0.077,0.568-0.231,0.733c-0.156,0.168-0.35,0.25-0.588,0.25c-0.238,0-0.428-0.084-0.58-0.254
					c-0.146-0.173-0.222-0.416-0.222-0.729v-4.642c0-0.319,0.076-0.559,0.222-0.721c0.152-0.165,0.342-0.245,0.58-0.245
					c0.238,0,0.432,0.079,0.588,0.245C290.65,477.379,290.727,477.606,290.727,477.892"/>
				<path style="fill:#FFFFFF;" d="M295.952,482.824l-1.428-2.354l-0.88,0.83v1.291c0,0.312-0.083,0.551-0.248,0.718
					c-0.16,0.17-0.354,0.254-0.566,0.254c-0.249,0-0.447-0.082-0.588-0.25c-0.142-0.165-0.215-0.41-0.215-0.734v-6.915
					c0-0.358,0.071-0.632,0.207-0.821c0.139-0.19,0.341-0.283,0.596-0.283c0.25,0,0.446,0.086,0.593,0.257
					c0.146,0.169,0.221,0.421,0.221,0.751v3.933l1.823-1.914c0.226-0.235,0.396-0.4,0.517-0.486c0.118-0.087,0.262-0.13,0.431-0.13
					c0.204,0,0.371,0.065,0.51,0.193c0.132,0.129,0.2,0.291,0.2,0.483c0,0.237-0.221,0.555-0.659,0.951l-0.861,0.789l1.662,2.614
					c0.121,0.196,0.212,0.34,0.265,0.441c0.053,0.099,0.081,0.2,0.081,0.289c0,0.258-0.072,0.459-0.213,0.61
					c-0.14,0.148-0.327,0.221-0.554,0.221c-0.198,0-0.352-0.051-0.458-0.16C296.282,483.295,296.133,483.101,295.952,482.824"/>
				<path style="fill:#FFFFFF;" d="M299.474,483.563c-0.245,0-0.455-0.079-0.634-0.238c-0.178-0.156-0.268-0.378-0.268-0.665
					c0-0.241,0.086-0.449,0.256-0.622c0.172-0.174,0.38-0.262,0.63-0.262c0.248,0,0.46,0.087,0.639,0.258
					c0.174,0.172,0.264,0.383,0.264,0.626c0,0.283-0.089,0.505-0.264,0.662C299.919,483.485,299.711,483.563,299.474,483.563"/>
				<path style="fill:#FFFFFF;" d="M307.536,481.557c0,0.2-0.06,0.418-0.182,0.646c-0.12,0.231-0.305,0.449-0.554,0.656
					c-0.247,0.208-0.557,0.377-0.934,0.502c-0.375,0.126-0.8,0.192-1.269,0.192c-1.004,0-1.786-0.293-2.349-0.876
					c-0.56-0.585-0.841-1.368-0.841-2.35c0-0.667,0.128-1.254,0.387-1.765c0.254-0.509,0.627-0.905,1.113-1.184
					c0.487-0.28,1.072-0.419,1.746-0.419c0.421,0,0.805,0.061,1.158,0.184c0.35,0.122,0.645,0.282,0.891,0.474
					c0.242,0.197,0.428,0.402,0.556,0.62c0.129,0.22,0.192,0.425,0.192,0.617c0,0.192-0.071,0.357-0.214,0.492
					c-0.147,0.134-0.322,0.203-0.524,0.203c-0.137,0-0.248-0.035-0.338-0.104c-0.09-0.07-0.191-0.181-0.299-0.339
					c-0.198-0.299-0.404-0.526-0.622-0.674c-0.214-0.152-0.488-0.226-0.821-0.226c-0.476,0-0.865,0.186-1.158,0.561
					c-0.292,0.372-0.44,0.887-0.44,1.534c0,0.305,0.039,0.587,0.114,0.842c0.073,0.254,0.182,0.472,0.325,0.652
					c0.144,0.179,0.315,0.315,0.516,0.409c0.203,0.096,0.425,0.141,0.665,0.141c0.326,0,0.604-0.075,0.835-0.225
					c0.235-0.151,0.439-0.38,0.617-0.689c0.099-0.182,0.204-0.323,0.318-0.427c0.114-0.102,0.256-0.156,0.422-0.156
					c0.198,0,0.363,0.077,0.491,0.226C307.469,481.226,307.536,481.388,307.536,481.557"/>
				<path style="fill:#FFFFFF;" d="M314.53,480.269c0,0.481-0.076,0.928-0.222,1.337c-0.154,0.408-0.37,0.758-0.656,1.049
					c-0.285,0.293-0.626,0.518-1.02,0.675c-0.4,0.154-0.844,0.234-1.337,0.234c-0.491,0-0.933-0.08-1.326-0.239
					c-0.389-0.156-0.732-0.384-1.016-0.676c-0.288-0.298-0.505-0.646-0.657-1.048c-0.144-0.402-0.219-0.847-0.219-1.332
					c0-0.491,0.078-0.941,0.224-1.349c0.151-0.409,0.368-0.757,0.649-1.046c0.282-0.289,0.621-0.511,1.019-0.669
					c0.402-0.156,0.844-0.234,1.326-0.234c0.49,0,0.936,0.078,1.337,0.239c0.399,0.157,0.739,0.384,1.027,0.674
					c0.286,0.297,0.502,0.643,0.65,1.045C314.455,479.337,314.53,479.78,314.53,480.269 M312.903,480.269
					c0-0.662-0.146-1.176-0.436-1.543c-0.289-0.372-0.681-0.555-1.171-0.555c-0.317,0-0.597,0.082-0.839,0.246
					c-0.242,0.163-0.426,0.406-0.556,0.727c-0.131,0.321-0.197,0.696-0.197,1.124c0,0.424,0.064,0.792,0.193,1.108
					c0.13,0.319,0.314,0.561,0.553,0.729c0.241,0.167,0.522,0.253,0.845,0.253c0.49,0,0.882-0.185,1.171-0.557
					C312.756,481.433,312.903,480.92,312.903,480.269"/>
				<path style="fill:#FFFFFF;" d="M320.712,480.388v2.154c0,0.342-0.075,0.594-0.231,0.767c-0.156,0.17-0.357,0.255-0.611,0.255
					c-0.245,0-0.446-0.085-0.594-0.255c-0.155-0.173-0.233-0.425-0.233-0.767v-2.582c0-0.408-0.013-0.726-0.04-0.953
					c-0.029-0.221-0.105-0.409-0.227-0.552c-0.123-0.147-0.318-0.22-0.582-0.22c-0.532,0-0.879,0.181-1.048,0.551
					c-0.167,0.36-0.254,0.883-0.254,1.567v2.189c0,0.336-0.076,0.591-0.226,0.765c-0.156,0.171-0.355,0.258-0.603,0.258
					c-0.247,0-0.448-0.087-0.604-0.258c-0.157-0.173-0.235-0.428-0.235-0.765v-4.637c0-0.306,0.07-0.538,0.209-0.695
					c0.143-0.16,0.329-0.239,0.556-0.239c0.223,0,0.407,0.077,0.557,0.222c0.148,0.149,0.221,0.354,0.221,0.615v0.153
					c0.283-0.334,0.584-0.582,0.903-0.738c0.323-0.162,0.676-0.241,1.07-0.241c0.407,0,0.757,0.082,1.049,0.244
					c0.294,0.163,0.533,0.41,0.725,0.735c0.275-0.33,0.568-0.577,0.881-0.738c0.313-0.16,0.658-0.241,1.039-0.241
					c0.441,0,0.826,0.089,1.146,0.262c0.319,0.174,0.558,0.425,0.717,0.747c0.138,0.295,0.206,0.756,0.206,1.385v3.164
					c0,0.342-0.076,0.594-0.229,0.767c-0.154,0.17-0.359,0.255-0.612,0.255c-0.247,0-0.446-0.087-0.603-0.258
					c-0.156-0.173-0.235-0.428-0.235-0.765v-2.726c0-0.349-0.015-0.627-0.043-0.836c-0.029-0.211-0.11-0.388-0.239-0.529
					c-0.132-0.142-0.331-0.215-0.596-0.215c-0.214,0-0.416,0.067-0.609,0.192c-0.192,0.124-0.342,0.298-0.45,0.508
					C320.774,479.21,320.712,479.694,320.712,480.388"/>
			</g>
			<g>
				<path style="fill:#FFFFFF;" d="M245.272,479.877c-0.001-0.003-0.001-0.006-0.001-0.011
					C245.271,479.871,245.271,479.874,245.272,479.877z"/>
				<path style="fill:#FFFFFF;" d="M245.354,480.395c0.001,0,0.001,0,0.001,0c-0.031-0.148-0.055-0.294-0.074-0.439
					C245.3,480.102,245.324,480.249,245.354,480.395z"/>
				<path style="fill:#FFFFFF;" d="M245.89,481.899c-0.004-0.006-0.007-0.013-0.011-0.021
					C245.883,481.885,245.886,481.893,245.89,481.899z"/>
				<path style="fill:#FFFFFF;" d="M245.839,481.799c-0.014-0.027-0.027-0.056-0.041-0.084
					C245.811,481.745,245.825,481.771,245.839,481.799z"/>
				<path style="fill:#FFFFFF;" d="M245.504,480.974c0.079,0.25,0.175,0.493,0.286,0.724c-0.113-0.236-0.206-0.479-0.283-0.724
					C245.506,480.974,245.505,480.974,245.504,480.974z"/>
				<path style="fill:#FFFFFF;" d="M251.545,473.667c0.313,0,0.544,0.025,0.809,0.069l0.075-0.477c0,0-0.732-0.225-1.694-0.146
					l-0.076-0.259c0.299-0.063,0.524-0.329,0.524-0.646c0-0.364-0.296-0.659-0.661-0.659c-0.364,0-0.66,0.295-0.66,0.659
					c0,0.317,0.224,0.583,0.523,0.646l0.084,0.289c-1.021,0.14-1.834,0.539-1.834,0.539l0.144,0.441
					c0.618-0.206,1.154-0.331,1.64-0.383C250.895,473.689,251.253,473.667,251.545,473.667z"/>
				<path style="fill:#FFFFFF;" d="M245.878,476.078l0.004-0.005c0.024-0.031,0.047-0.06,0.071-0.089l-0.196-0.141l-0.305-0.223
					c-0.017,0.024-0.497,0.465-0.876,1.28c-0.016-0.026-0.035-0.051-0.056-0.074c-0.114-0.124-0.272-0.187-0.474-0.184
					c-0.003,0-0.006,0-0.009,0c-0.125,0-0.211-0.042-0.267-0.092c0.056-0.071,0.089-0.16,0.089-0.258
					c0-0.23-0.187-0.418-0.418-0.418c-0.23,0-0.418,0.188-0.418,0.418c0,0.231,0.187,0.418,0.418,0.418
					c0.036,0,0.071-0.006,0.104-0.013c0.103,0.114,0.266,0.214,0.505,0.209c0.123-0.001,0.213,0.03,0.273,0.097
					c0.069,0.076,0.093,0.185,0.1,0.267c-0.001,0.001-0.001,0.003-0.002,0.003c-0.272,0.743-0.194,1.669-0.194,1.669l0.661,0.026
					c0.013-0.337,0.062-0.926,0.232-1.394C245.449,476.668,245.861,476.102,245.878,476.078z"/>
				<path style="fill:#FFFFFF;" d="M257.295,474.219c-0.23,0-0.418,0.187-0.418,0.418c0,0.036,0.005,0.07,0.015,0.103
					c-0.115,0.104-0.214,0.267-0.211,0.507c0.002,0.123-0.03,0.212-0.096,0.273c-0.053,0.047-0.12,0.072-0.185,0.088
					c-0.492-0.689-1.097-1.11-1.097-1.11l-0.474,0.508c0.358,0.326,0.725,0.734,1.08,1.244c0.246,0.352,0.499,0.806,0.71,1.259
					l0.64-0.304c0,0-0.292-0.722-0.704-1.37c0.071-0.025,0.143-0.064,0.207-0.12c0.125-0.113,0.187-0.273,0.183-0.474
					c-0.001-0.13,0.042-0.218,0.093-0.276c0.071,0.054,0.16,0.089,0.258,0.089c0.232,0,0.419-0.187,0.419-0.418
					C257.714,474.406,257.527,474.219,257.295,474.219z"/>
				<path style="fill:#FFFFFF;" d="M255.634,479.97c-0.881,0.429-2.33,0.996-4.238,1.262c-0.749,0.104-1.475,0.142-2.143,0.142
					c-0.869,0-1.637-0.065-2.227-0.139c-0.673-0.085-1.198-0.189-1.52-0.261c0.077,0.245,0.171,0.488,0.283,0.724
					c0.002,0.006,0.005,0.013,0.008,0.017c0.013,0.028,0.027,0.056,0.041,0.084c0.013,0.027,0.027,0.054,0.041,0.079
					c0.004,0.007,0.007,0.015,0.011,0.021c0.189,0.356,0.417,0.684,0.675,0.968c0.9,0.984,1.817,1.14,1.826,1.141l0.014,0.002
					l0.013,0.005c0.008,0.003,0.821,0.265,2.057,0.265c1.216,0,2.409-0.245,3.546-0.729c0.842-0.431,1.639-1.085,2.034-1.669
					c0.305-0.452,0.526-0.933,0.656-1.434c0.07-0.266,0.124-0.692,0.092-1.141C256.556,479.475,256.164,479.712,255.634,479.97z"/>
				<path style="fill:#FFFFFF;" d="M246.161,476.287c-0.026,0.037-0.408,0.578-0.71,1.408c-0.226,0.622-0.216,1.527-0.216,1.538
					v0.002c0,0.212,0.012,0.423,0.035,0.632c0,0.005,0,0.008,0.001,0.011c0.002,0.027,0.007,0.052,0.009,0.079
					c0.019,0.145,0.043,0.291,0.074,0.439c0.438,0.111,3.049,0.72,5.968,0.314c1.829-0.255,3.218-0.795,4.062-1.204
					c0.701-0.34,1.151-0.648,1.325-0.774c-0.173-0.643-0.651-1.65-1.089-2.279c-1.253-1.791-2.604-2.25-3.298-2.365
					c-0.265-0.043-0.477-0.068-0.777-0.068c-0.28,0-0.626,0.023-1.09,0.071c-0.464,0.048-0.982,0.17-1.583,0.372
					c-0.842,0.282-1.605,0.724-2.204,1.28l-0.02,0.019C246.56,475.843,246.374,476.015,246.161,476.287z M253.829,475.87
					c0.601,0,1.089,0.488,1.089,1.089s-0.489,1.09-1.089,1.09c-0.601,0-1.089-0.489-1.089-1.09S253.228,475.87,253.829,475.87z
					 M248.678,475.827c0.973,0,1.761,0.789,1.761,1.761c0,0.972-0.788,1.759-1.761,1.759c-0.972,0-1.76-0.787-1.76-1.759
					C246.918,476.615,247.707,475.827,248.678,475.827z"/>
			</g>
		</g>
	</g>
</g>
</svg>
